<svg width="30" height="30" viewBox="0 0 30 30" fill="none" xmlns="http://www.w3.org/2000/svg">
<path d="M21.3102 25.9904C21.3102 25.9904 20.0973 17.4767 17.5007 12.9792C14.9039 8.48156 8.52332 3.8429 8.52332 3.8429" stroke="white" stroke-width="4" stroke-linecap="round"/>
<path d="M27.6571 15.6662C20.668 14.133 11.1176 20.5328 9.20386 26.3062" stroke="white" stroke-width="4" stroke-linecap="round"/>
<path d="M20.6183 3.56142C18.6964 9.27195 9.32952 15.5783 2.37305 14.2082" stroke="white" stroke-width="4" stroke-linecap="round"/>
<path d="M8.45833 3.72802C10.3582 2.629 12.564 2 14.9167 2C22.0503 2 27.8333 7.78299 27.8333 14.9167C27.8333 22.0503 22.0503 27.8333 14.9167 27.8333C7.78299 27.8333 2 22.0503 2 14.9167C2 12.564 2.629 10.3582 3.72802 8.45833" stroke="white" stroke-width="4" stroke-linecap="round"/>
</svg>
